FFmpeg version SVN-r25716, Copyright (c) 2000-2010 the FFmpeg developers  built on Nov 10 2010 12:23:18 with gcc 4.1.2 20080704 (Red Hat 4.1.2-48)  configuration: --enable-libmp3lame --enable-shared --disable-mmx --arch=x86_64  libavutil     50.33. 0 / 50.33. 0  libavcore      0.12. 1 /  0.12. 1  libavcodec    52.94. 4 / 52.94. 4  libavformat   52.84. 0 / 52.84. 0  libavdevice   52. 2. 2 / 52. 2. 2  libavfilter    1.59. 0 /  1.59. 0  libswscale     0.12. 0 /  0.12. 0Seems stream 0 codec frame rate differs from container frame rate: 1200.00 (1200/1) -> 10.00 (10/1)Input #0, mov,mp4,m4a,3gp,3g2,mj2, from '/RAID10/data/converted_video_files/42154.mov':  Metadata:    major_brand     : qt      minor_version   : 537199360    compatible_brands: qt    Duration: 00:00:23.90, start: 0.000000, bitrate: 2389 kb/s    Stream #0.0(eng): Video: h264, yuv420p, 720x480, 2387 kb/s, PAR 10:11 DAR 15:11, 10 fps, 10 tbr, 600 tbn, 1200 tbc[buffer @ 0x31f4200] w:720 h:480 pixfmt:yuv420pOutput #0, flv, to '/RAID10/data/converted_video_files/42154.flv':  Metadata:    encoder         : Lavf52.84.0    Stream #0.0(eng): Video: flv, yuv420p, 720x480 [PAR 10:11 DAR 15:11], q=2-31, 600 kb/s, 1k tbn, 24 tbcStream mapping:  Stream #0.0 -> #0.0Press [q] to stop encodingframe=   25 fps=  0 q=8.1 size=     312kB time=2.46 bitrate=1040.7kbits/s    frame=   58 fps= 55 q=10.8 size=     459kB time=5.75 bitrate= 654.4kbits/s    frame=   88 fps= 56 q=8.2 size=     640kB time=8.75 bitrate= 599.0kbits/s    frame=  117 fps= 56 q=9.8 size=     797kB time=11.62 bitrate= 561.7kbits/s    frame=  149 fps= 57 q=9.3 size=     983kB time=14.83 bitrate= 543.1kbits/s    frame=  176 fps= 56 q=10.5 size=    1154kB time=17.54 bitrate= 538.7kbits/s    frame=  204 fps= 56 q=12.1 size=    1371kB time=20.33 bitrate= 552.5kbits/s    frame=  233 fps= 56 q=11.6 size=    1546kB time=23.25 bitrate= 544.6kbits/s    frame=  239 fps= 56 q=11.1 Lsize=    1590kB time=23.83 bitrate= 546.5kbits/s    video:1586kB audio:0kB global headers:0kB muxing overhead 0.248386%